# This file uses centimeters as units for non-parametric coordinates.

mtllib belt01.mtl
g default
v -4.491212 3.508461 -7.996851
v 11.205452 3.508461 -7.996851
v -4.491212 3.508461 -9.962006
v 11.205452 3.508461 -9.962006
v -4.725801 3.105808 -7.972477
v 11.453887 3.105808 -7.972477
v -4.725801 3.105808 -9.986380
v 11.453887 3.105808 -9.986380
v -4.327586 2.666051 -7.972477
v 11.041826 2.666051 -7.972477
v -4.327586 2.666051 -9.986380
v 11.041826 2.666051 -9.986380
v 3.357120 2.666051 -7.972478
v 3.357120 2.666051 -9.986379
vt 0.060932 0.032827
vt 0.061667 0.018819
vt 0.060860 0.504675
vt 0.061590 0.518897
vt 0.001859 0.032818
vt 0.001128 0.018810
vt 0.001786 0.504666
vt 0.001051 0.518888
vt 0.061669 0.000985
vt 0.061587 0.537013
vt 0.001131 0.000977
vt 0.001049 0.537004
vt 0.061515 0.999023
vt 0.061552 0.768018
vt 0.000977 0.999014
vt 0.001013 0.768009
vn 0.000000 1.000000 0.000000
vn 0.000000 1.000000 0.000000
vn 0.000000 1.000000 0.000000
vn 0.000000 1.000000 0.000000
vn -0.864052 0.503403 0.000000
vn -0.864052 0.503403 0.000000
vn -0.864052 0.503403 0.000000
vn -0.864052 0.503403 0.000000
vn 0.851046 0.525091 0.000000
vn 0.851046 0.525091 0.000000
vn 0.851046 0.525091 0.000000
vn 0.851046 0.525091 0.000000
vn -0.741252 -0.671227 0.000000
vn -0.741252 -0.671227 0.000000
vn -0.741252 -0.671227 0.000000
vn -0.741252 -0.671227 0.000000
vn 0.729712 -0.683754 0.000000
vn 0.729712 -0.683754 0.000000
vn 0.729712 -0.683754 0.000000
vn 0.729712 -0.683754 0.000000
vn 0.000000 -1.000000 0.000000
vn 0.000000 -1.000000 0.000000
vn 0.000000 -1.000000 0.000000
vn 0.000000 -1.000000 0.000000
vn 0.000000 -1.000000 0.000000
vn 0.000000 -1.000000 0.000000
vn 0.000000 -1.000000 0.000000
vn 0.000000 -1.000000 0.000000
s off
g polySurface597 polySurface63
usemtl phongE4SG
f 4/7/1 3/5/2 1/1/3 2/3/4
f 5/2/5 1/1/6 3/5/7 7/6/8
f 8/8/9 4/7/10 2/3/11 6/4/12
f 9/9/13 5/2/14 7/6/15 11/11/16
f 12/12/17 8/8/18 6/4/19 10/10/20
f 13/14/21 9/13/22 11/15/23 14/16/24
f 13/14/25 14/16/26 12/12/27 10/10/28
